<?xml version="1.0" encoding="UTF-8" standalone="no"?>
<svg width="25px" height="25px" viewBox="0 0 25 25" version="1.1" xmlns="http://www.w3.org/2000/svg" xmlns:xlink="http://www.w3.org/1999/xlink" xmlns:sketch="http://www.bohemiancoding.com/sketch/ns">
    <!-- Generator: Sketch 3.3.1 (12005) - http://www.bohemiancoding.com/sketch -->
    <title>icon</title>
    <desc>Created with Sketch.</desc>
    <defs></defs>
    <g id="BakeCycle---Admin---r.2.v1" stroke="none" stroke-width="1" fill="none" fill-rule="evenodd" sketch:type="MSPage">
        <g id="icon" sketch:type="MSLayerGroup" transform="translate(2.500000, 2.500000)" fill="#B4B4B4">
            <path d="M10.1516923,0.247384615 L0.305538462,4.77846154 L0.310461538,15.2713846 L10.1473846,19.9455385 L19.9978462,15.4132308 L19.9978462,4.77846154 L10.1516923,0.247384615 L10.1516923,0.247384615 Z M10.1516923,8.80123077 L2.38430769,5.17630769 L5.82676923,3.59292308 L13.4630769,7.25630769 L10.1516923,8.80123077 L10.1516923,8.80123077 Z M10.7670769,9.87230769 L15.0778462,7.86092308 L15.0778462,16.3224615 L10.7670769,18.3055385 L10.7670769,9.87230769 L10.7670769,9.87230769 Z M17.9187692,5.17630769 L14.9052308,6.58338462 L7.27907692,2.924 L10.1516923,1.60246154 L17.9187692,5.17630769 L17.9187692,5.17630769 Z M1.53692308,6.13907692 L9.53630769,9.87230769 L9.53630769,18.2923077 L1.54123077,14.4929231 L1.53692308,6.13907692 L1.53692308,6.13907692 Z" id="Fill-1" sketch:type="MSShapeGroup"></path>
            <path d="M2.77015385,6.06276923 L2.77015385,11.1390769 L8.30861538,13.6686154 L8.30861538,8.62523077 L2.77015385,6.06276923 L2.77015385,6.06276923 Z M7.07784615,11.7532308 L4.00092308,10.3483077 L4.00092308,7.98830769 L7.07784615,9.412 L7.07784615,11.7532308 L7.07784615,11.7532308 Z" id="Fill-2" sketch:type="MSShapeGroup"></path>
        </g>
    </g>
</svg>