<?xml version="1.0" encoding="UTF-8" standalone="no"?>
<svg width="25px" height="25px" viewBox="0 0 25 25" version="1.1" xmlns="http://www.w3.org/2000/svg" xmlns:xlink="http://www.w3.org/1999/xlink" xmlns:sketch="http://www.bohemiancoding.com/sketch/ns">
    <!-- Generator: Sketch 3.3.1 (12005) - http://www.bohemiancoding.com/sketch -->
    <title>icon</title>
    <desc>Created with Sketch.</desc>
    <defs></defs>
    <g id="BakeCycle---Admin---r.2.v1" stroke="none" stroke-width="1" fill="none" fill-rule="evenodd" sketch:type="MSPage">
        <path d="M12.5,3 C7.26164063,3 3,7.26164063 3,12.5 C3,17.7386562 7.26164063,22 12.5,22 C17.7380625,22 22,17.7386562 22,12.5 C22,7.26164063 17.7380625,3 12.5,3 L12.5,3 L12.5,3 Z M18.5927656,18.1468594 C17.8725469,17.4299062 16.6906875,16.7853906 14.7912813,16.2035156 L14.6710469,16.1667031 L14.5784219,16.0809062 C14.3198438,15.8401406 14.3251875,15.36425 14.3269687,15.3108125 L14.3257813,15.186125 C14.3257813,14.79425 14.3703125,14.5193437 14.4662031,14.3174687 C14.5680312,14.10075 14.7132031,13.7005625 14.7838594,13.2935469 L14.8055312,13.1700469 L14.8788594,13.0679219 C15.0652969,12.8081562 15.2083906,12.4352812 15.3039844,11.9593906 C15.4215469,11.3700937 15.3654375,11.1495156 15.2918125,10.958625 L15.2579688,10.8704531 L15.2558906,10.77575 C15.2496562,10.54775 15.2900313,9.94895312 15.3785,9.46415625 C15.4485625,9.08 15.3600938,8.26329687 14.8301719,7.58671875 C14.4967813,7.16129688 13.8611719,6.63998437 12.7196875,6.56398438 L12.4964375,6.5625 L12.2800156,6.56398438 C11.1385312,6.63998437 10.5029219,7.16129688 10.170125,7.58642187 C9.63960938,8.26329687 9.55114063,9.08 9.62090625,9.46385937 C9.70967188,9.94895312 9.75004687,10.54775 9.7438125,10.77575 L9.74173438,10.8704531 L9.70789062,10.958625 C9.63426562,11.1495156 9.57815625,11.3700937 9.69571875,11.9596875 C9.7913125,12.4352812 9.93440625,12.8081562 10.1208438,13.0679219 L10.1941719,13.1700469 L10.2158437,13.2935469 C10.2865,13.7005625 10.4316719,14.10075 10.5343906,14.3195469 C10.6293906,14.5193437 10.6739219,14.79425 10.6739219,15.1819688 L10.6727344,15.3022031 C10.6745156,15.36425 10.6798594,15.8401406 10.4212812,16.0809062 L10.3286563,16.1667031 L10.2084219,16.2035156 C8.30871875,16.7853906 7.12715625,17.4299062 6.4069375,18.1468594 C5.03092187,16.6630781 4.1875,14.6784688 4.1875,12.5 C4.1875,7.91654687 7.91625,4.1875 12.5,4.1875 C17.0834531,4.1875 20.8125,7.91654687 20.8125,12.5 C20.8125,14.6784688 19.9687812,16.6630781 18.5927656,18.1468594 L18.5927656,18.1468594 L18.5927656,18.1468594 Z" id="icon" fill="#B4B4B4" sketch:type="MSShapeGroup"></path>
    </g>
</svg>