<?xml version="1.0" encoding="UTF-8" standalone="no"?>
<svg width="25px" height="25px" viewBox="0 0 25 25" version="1.1" xmlns="http://www.w3.org/2000/svg" xmlns:xlink="http://www.w3.org/1999/xlink" xmlns:sketch="http://www.bohemiancoding.com/sketch/ns">
    <!-- Generator: Sketch 3.3.1 (12005) - http://www.bohemiancoding.com/sketch -->
    <title>icon_account</title>
    <desc>Created with Sketch.</desc>
    <defs></defs>
    <g id="BakeCycle---Admin---r.2.v1" stroke="none" stroke-width="1" fill="none" fill-rule="evenodd" sketch:type="MSPage">
        <g id="icons" sketch:type="MSArtboardGroup">
            <g id="icon_account" sketch:type="MSLayerGroup">
                <rect id="bg" fill-opacity="0.01" fill="#D8D8D8" sketch:type="MSShapeGroup" x="0" y="0" width="25" height="25"></rect>
                <path d="M16.8853808,16.4321852 L15.6040672,15.5856481 C15.6191596,15.4153333 15.6268598,15.2447037 15.6268598,15.0740741 C15.6268598,14.8244259 15.6093033,14.5697407 15.5744984,14.3137963 L16.8844568,13.4471111 C17.1699803,13.2582222 17.2519104,12.8684815 17.0667975,12.5763333 L15.3952377,9.93503704 C15.2098168,9.64257407 14.8285028,9.55851852 14.5432874,9.74803704 L13.3750127,10.5202778 C13.0211114,10.2520556 12.6410295,10.0294815 12.2384629,9.85601852 L12.2384629,8.46296296 C12.2384629,8.11540741 11.9627957,7.83333333 11.6227548,7.83333333 L8.54236599,7.83333333 C8.20232507,7.83333333 7.92665784,8.11540741 7.92665784,8.46296296 L7.92665784,9.85601852 C7.52409128,10.0294815 7.14462533,10.2517407 6.79103206,10.5196481 L5.62368145,9.74803704 C5.33784995,9.55851852 4.95653595,9.64288889 4.7717311,9.93503704 L3.09986326,12.5763333 C2.9147504,12.8684815 2.99668055,13.2582222 3.28220404,13.4471111 L4.59062235,14.3128519 C4.55581744,14.5691111 4.53856899,14.8237963 4.53856899,15.0740741 C4.53856899,15.2450185 4.54596118,15.415963 4.56136159,15.5865926 L3.28189603,16.4321852 C3.14452443,16.522537 3.0481179,16.6657778 3.013621,16.8288519 C2.9794321,16.9922407 3.01023291,17.1628704 3.09893923,17.302963 L4.77111509,19.9455185 C4.85982141,20.0859259 4.99934907,20.1841481 5.15920526,20.2194074 C5.31998548,20.2543519 5.48600184,20.2228704 5.62306543,20.1318889 L6.60591921,19.4821111 C7.00848576,19.8132963 7.45478947,20.0871852 7.92665784,20.2918148 L7.92665784,21.3703704 C7.92665784,21.7182407 8.20232507,22 8.54236599,22 L11.6227548,22 C11.9627957,22 12.2384629,21.7182407 12.2384629,21.3703704 L12.2384629,20.2918148 C12.7109473,20.0871852 13.157251,19.8129815 13.5598176,19.4814815 L14.5439034,20.1318889 C14.680967,20.2222407 14.8472913,20.2537222 15.0077635,20.2194074 C15.1673117,20.1841481 15.3068394,20.0859259 15.3958537,19.9455185 L17.0680296,17.302963 C17.1564279,17.1628704 17.1872287,16.9922407 17.1530398,16.8288519 C17.1185429,16.6657778 17.0224444,16.5228519 16.8853808,16.4321852 L16.8853808,16.4321852 Z M14.6960594,18.732537 L13.8376409,18.1649259 C13.5973946,18.0059444 13.2813783,18.0371111 13.0753209,18.2407963 C12.6074566,18.702 12.0382577,19.053963 11.4299417,19.2589074 C11.1773751,19.3435926 11.0067386,19.5847407 11.0067386,19.8567407 L11.0067386,20.7407407 L9.15869015,20.7407407 L9.15869015,19.8567407 C9.15869015,19.5847407 8.98774567,19.3435926 8.73517905,19.2589074 C8.12747911,19.0542778 7.55828018,18.7023148 7.09041591,18.2411111 C6.8840505,18.0377407 6.56803421,18.0068889 6.32809592,18.1655556 L5.47090944,18.732537 L4.46803514,17.1477593 L5.55499564,16.429037 C5.76105305,16.2927222 5.86854787,16.044963 5.82850682,15.7978333 C5.79000581,15.5592037 5.77029329,15.315537 5.77029329,15.0740741 C5.77029329,14.7721667 5.80417418,14.4589259 5.87070392,14.1437963 C5.92460534,13.8878519 5.81803454,13.6243519 5.60335291,13.4820556 L4.46865115,12.7318519 L5.47183346,11.1473889 L6.49626833,11.8245556 C6.7275824,11.9778704 7.03035434,11.9548889 7.23733576,11.7685185 C7.68055939,11.3705926 8.1841526,11.0749815 8.73517905,10.8898704 C8.98774567,10.8048704 9.15869015,10.5637222 9.15869015,10.2917222 L9.15869015,9.09259259 L11.0067386,9.09259259 L11.0067386,10.2917222 C11.0067386,10.5637222 11.1773751,10.8048704 11.4299417,10.8898704 C11.9806602,11.0749815 12.4845614,11.3705926 12.928709,11.769463 C13.1356905,11.9555185 13.4381544,11.9781852 13.6697765,11.8251852 L14.6948273,11.1473889 L15.6980096,12.7318519 L14.5620759,13.4833148 C14.3470862,13.6252963 14.2408234,13.8884815 14.2947248,14.1444259 C14.3609466,14.4598704 14.3948275,14.7724815 14.3948275,15.0740741 C14.3948275,15.3161667 14.375115,15.5592037 14.336922,15.7965741 C14.2965729,16.0437037 14.4040677,16.2917778 14.6101251,16.4280926 L15.6989337,17.1477593 L14.6960594,18.732537 L14.6960594,18.732537 Z" id="Fill-1" fill="#B4B4B4" sketch:type="MSShapeGroup"></path>
                <path d="M10.0833333,12 C8.4749537,12 7.16666667,13.3085384 7.16666667,14.9165046 C7.16666667,16.5247949 8.4749537,17.8333333 10.0833333,17.8333333 C11.6913889,17.8333333 13,16.5247949 13,14.9165046 C13,13.3085384 11.6913889,12 10.0833333,12 L10.0833333,12 Z M10.0833333,16.537109 C9.18986111,16.537109 8.46263889,15.8102513 8.46263889,14.9165046 C8.46263889,14.0234061 9.18986111,13.2962243 10.0833333,13.2962243 C10.9764815,13.2962243 11.7037037,14.0234061 11.7037037,14.9165046 C11.7037037,15.8102513 10.9764815,16.537109 10.0833333,16.537109 L10.0833333,16.537109 Z" id="Fill-2" fill="#B4B4B4" sketch:type="MSShapeGroup"></path>
                <path d="M21.8614208,6.80117474 C21.8923296,6.62790015 21.9087302,6.44992658 21.9087302,6.26842878 C21.9087302,6.0328928 21.8787675,5.8041116 21.8279888,5.58267254 L22.9993692,4.87665198 L21.8141114,3.1712188 L20.7212646,3.82907489 C20.3711751,3.54302496 19.9602142,3.31923642 19.5073057,3.18032305 L19.5073057,2 L17.3244506,2 L17.3244506,3.18032305 C16.8718575,3.31923642 16.461212,3.54243759 16.111438,3.8287812 L15.0189066,3.1712188 L13.8339641,4.87665198 L15.0043983,5.58208517 C14.9529888,5.80352423 14.9233416,6.03230543 14.9233416,6.26842878 C14.9233416,6.44992658 14.9397422,6.62848752 14.9703356,6.80176211 L13.8333333,7.4866373 L15.0182758,9.19265786 L15.9925337,8.60558003 C16.3662779,8.94155653 16.8195018,9.20146843 17.3244506,9.35653451 L17.3244506,10.3333333 L19.5073057,10.3333333 L19.5073057,9.35653451 C20.0128854,9.20146843 20.4657939,8.94126285 20.8401688,8.60558003 L21.8147422,9.19265786 L23,7.4866373 L21.8614208,6.80117474 L21.8614208,6.80117474 Z M18.4160359,7.69133627 C17.5723518,7.69133627 16.8882581,7.05403818 16.8882581,6.26842878 C16.8882581,5.48281938 17.5723518,4.84552129 18.4160359,4.84552129 C19.2597199,4.84552129 19.9438137,5.48281938 19.9438137,6.26842878 C19.9438137,7.05403818 19.2597199,7.69133627 18.4160359,7.69133627 L18.4160359,7.69133627 Z" id="Fill-3" fill="#B4B4B4" sketch:type="MSShapeGroup"></path>
            </g>
        </g>
    </g>
</svg>