<?xml version="1.0" encoding="UTF-8" standalone="no"?>
<svg width="25px" height="25px" viewBox="0 0 25 25" version="1.1" xmlns="http://www.w3.org/2000/svg" xmlns:xlink="http://www.w3.org/1999/xlink" xmlns:sketch="http://www.bohemiancoding.com/sketch/ns">
    <!-- Generator: Sketch 3.3.1 (12005) - http://www.bohemiancoding.com/sketch -->
    <title>icon</title>
    <desc>Created with Sketch.</desc>
    <defs></defs>
    <g id="BakeCycle---Admin---r.2.v1" stroke="none" stroke-width="1" fill="none" fill-rule="evenodd" sketch:type="MSPage">
        <path d="M22.1923077,16.0384615 L22.1923077,2.5 L2.5,2.5 L2.5,16.0384615 L11.7273846,16.0384615 L11.7273846,17.6532308 L7.92061538,21.2963077 L8.77169231,22.1855385 L12.3415385,18.7692308 L15.9190769,22.2163077 L16.7729231,21.3298462 L12.9581538,17.6544615 L12.9581538,16.0384615 L22.1923077,16.0384615 L22.1923077,16.0384615 Z M20.9615385,3.73076923 L20.9615385,12.3436923 L3.73076923,12.3436923 L3.73076923,9.26923077 L8.63230769,9.26923077 L9.80184615,7.88153846 L11.6101538,10.8756923 L13.6227692,8.86307692 L15.1803077,10.1092308 L18.9507692,5.99261538 L18.0427692,5.16153846 L15.0501538,8.42892308 L13.5313846,7.21384615 L11.8510769,8.89353846 L9.96738462,5.77507692 L8.06,8.03846154 L3.73076923,8.03846154 L3.73076923,3.73076923 L20.9615385,3.73076923 L20.9615385,3.73076923 Z M3.73076923,13.5744615 L12.9615385,13.5744615 L12.9615385,14.8076923 L3.73076923,14.8076923 L3.73076923,13.5744615 Z" id="icon" fill="#B4B4B4" sketch:type="MSShapeGroup"></path>
    </g>
</svg>