<?xml version="1.0" encoding="UTF-8" standalone="no"?>
<svg width="25px" height="25px" viewBox="0 0 25 25" version="1.1" xmlns="http://www.w3.org/2000/svg" xmlns:xlink="http://www.w3.org/1999/xlink" xmlns:sketch="http://www.bohemiancoding.com/sketch/ns">
    <!-- Generator: Sketch 3.3.1 (12005) - http://www.bohemiancoding.com/sketch -->
    <title>icon</title>
    <desc>Created with Sketch.</desc>
    <defs></defs>
    <g id="BakeCycle---Admin---r.2.v1" stroke="none" stroke-width="1" fill="none" fill-rule="evenodd" sketch:type="MSPage">
        <path d="M21.4692308,9.79230769 L18.0808923,9.79230769 L18.0808923,3.7 L9.28461538,3.7 L9.28461538,18.8932 C8.98744615,18.3161231 8.51224615,17.8483692 7.93076923,17.5586462 L7.93076923,3.53076923 C7.93076923,2.50421538 7.09544615,1.66923077 6.06923077,1.66923077 L4.54615385,1.66923077 C4.17215385,1.66923077 3.86923077,1.97215385 3.86923077,2.34615385 C3.86923077,2.71981538 4.17215385,3.02307692 4.54615385,3.02307692 L6.06923077,3.02307692 C6.34913846,3.02307692 6.57692308,3.25086154 6.57692308,3.53076923 L6.57692308,17.2384615 C4.89476923,17.2384615 3.53076923,18.6021231 3.53076923,20.2846154 C3.53076923,21.9667692 4.89476923,23.3307692 6.57692308,23.3307692 C7.77338462,23.3307692 8.80569231,22.6392923 9.30390769,21.6357538 L16.7886462,21.6357538 L18.7706769,23.3216308 L19.6479692,22.2903385 L17.6876,20.6230769 L21.4692308,20.6230769 L21.4692308,9.79230769 L21.4692308,9.79230769 Z M10.6384615,5.05384615 L16.7270462,5.05384615 L16.7270462,9.79230769 L10.6384615,9.79230769 L10.6384615,5.05384615 L10.6384615,5.05384615 Z M10.6384615,11.1461538 L20.1153846,11.1461538 L20.1153846,19.2692308 L10.6384615,19.2692308 L10.6384615,11.1461538 L10.6384615,11.1461538 Z" id="icon" fill="#B4B4B4" sketch:type="MSShapeGroup"></path>
    </g>
</svg>