<?xml version="1.0" encoding="UTF-8" standalone="no"?>
<svg width="25px" height="25px" viewBox="0 0 25 25" version="1.1" xmlns="http://www.w3.org/2000/svg" xmlns:xlink="http://www.w3.org/1999/xlink" xmlns:sketch="http://www.bohemiancoding.com/sketch/ns">
    <!-- Generator: Sketch 3.3.1 (12005) - http://www.bohemiancoding.com/sketch -->
    <title>icon</title>
    <desc>Created with Sketch.</desc>
    <defs></defs>
    <g id="BakeCycle---Admin---r.2.v1" stroke="none" stroke-width="1" fill="none" fill-rule="evenodd" sketch:type="MSPage">
        <path d="M19.8764615,8.98153846 L19.8764615,2.96153846 L5.11061538,2.96153846 L5.11061538,8.99538462 L2.65123077,14.6566154 L2.65123077,19.7778462 C2.65123077,21.0243077 3.66538462,22.0384615 4.91153846,22.0384615 L20.0884615,22.0384615 C21.3346154,22.0384615 22.3487692,21.0243077 22.3487692,19.7778462 L22.3487692,14.6566154 L19.8764615,8.98153846 L19.8764615,8.98153846 Z M6.34138462,4.19230769 L18.6456923,4.19230769 L18.6456923,14.6566154 L15.5721538,14.6566154 L15.5721538,16.5790769 C15.5721538,16.792 15.1281538,17.1181538 14.7447692,17.1181538 L9.95707692,17.1181538 C9.66015385,17.1181538 9.41830769,16.8763077 9.41830769,16.5790769 L9.41830769,14.6566154 L6.34138462,14.6566154 L6.34138462,4.19230769 L6.34138462,4.19230769 Z M21.118,19.7778462 C21.118,20.3458462 20.6558462,20.8076923 20.0884615,20.8076923 L4.91153846,20.8076923 C4.34415385,20.8076923 3.882,20.3458462 3.882,19.7778462 L3.882,15.8873846 L8.18753846,15.8873846 L8.18753846,16.5790769 C8.18753846,17.5550769 8.98138462,18.3489231 9.95707692,18.3489231 L14.7447692,18.3489231 C15.7164615,18.3489231 16.8029231,17.592 16.8029231,16.5790769 L16.8029231,15.8873846 L21.118,15.8873846 L21.118,19.7778462 Z M8.18753846,12.1923077 L16.8029231,12.1923077 L16.8029231,13.4230769 L8.18753846,13.4230769 L8.18753846,12.1923077 Z M8.18753846,9.73076923 L16.8029231,9.73076923 L16.8029231,10.9615385 L8.18753846,10.9615385 L8.18753846,9.73076923 Z M10.6490769,7.26923077 L16.8029231,7.26923077 L16.8029231,8.5 L10.6490769,8.5 L10.6490769,7.26923077 Z M8.18753846,5.42307692 L10.0336923,5.42307692 L10.0336923,6.65384615 L8.18753846,6.65384615 L8.18753846,5.42307692 Z" id="icon" fill="#B4B4B4" sketch:type="MSShapeGroup"></path>
    </g>
</svg>