<?xml version="1.0" encoding="utf-8"?>
<!-- Generator: Adobe Illustrator 18.1.1, SVG Export Plug-In . SVG Version: 6.00 Build 0)  -->
<svg version="1.1" id="Layer_1" xmlns:sketch="http://www.bohemiancoding.com/sketch/ns"
	 xmlns="http://www.w3.org/2000/svg" xmlns:xlink="http://www.w3.org/1999/xlink" x="0px" y="0px" viewBox="-251 343 108 108"
	 enable-background="new -251 343 108 108" xml:space="preserve">
<title>shadow + color + icons</title>
<desc>Created with Sketch.</desc>
<g id="BakeCycle---_x28_r.1.v.1_x29_" sketch:type="MSPage">
	<g id="HOME---_x28_1280x700_x29_" transform="translate(-940.000000, -1016.000000)" sketch:type="MSArtboardGroup">
		<g id="ABOUT" transform="translate(132.000000, 788.000000)" sketch:type="MSLayerGroup">
			<g id="FEATURE-_x2B_-FEATURE-_x2B_-FEATURE" transform="translate(0.000000, 232.000000)">
				<g id="_x33_" transform="translate(712.000000, 0.000000)">
					<g id="shadow-_x2B_-color-_x2B_-icons" transform="translate(100.000000, 0.000000)">
						<circle id="shadow" sketch:type="MSShapeGroup" fill="none" stroke="#F1F1F1" stroke-width="4" cx="-201" cy="393" r="50">
						</circle>
						
							<linearGradient id="color_1_" gradientUnits="userSpaceOnUse" x1="-502.99" y1="786.59" x2="-502.99" y2="785.59" gradientTransform="matrix(100 0 0 -100 50098 79002)">
							<stop  offset="0" style="stop-color:#60C6CF"/>
							<stop  offset="1" style="stop-color:#1DA7B3"/>
						</linearGradient>
						
							<circle id="color" sketch:type="MSShapeGroup" fill="url(#color_1_)" stroke="#FFFFFF" stroke-width="2" cx="-201" cy="393" r="50">
						</circle>
					</g>
				</g>
			</g>
		</g>
	</g>
	<g>
		<path fill="#FFFFFF" d="M-178,370.8h-36c-2.4,0-4.4,2-4.4,4.4v32c0,1.7,1,3.1,2.4,3.9v2.9c0,1.5,1,2.8,2.4,3.1v1.6
			c0,1.8,1.5,3.3,3.3,3.3h1.5c1.8,0,3.2-1.4,3.2-3.3v-1.5h19.2v1.5c0,1.8,1.5,3.3,3.3,3.3h1.5c1.8,0,3.2-1.4,3.2-3.3v-1.7
			c1.4-0.4,2.4-1.6,2.4-3.1v-2.9c1.4-0.7,2.4-2.2,2.4-3.9v-32C-173.6,372.8-175.6,370.8-178,370.8z M-215.2,375.2
			c0-0.7,0.5-1.2,1.2-1.2h36c0.7,0,1.2,0.5,1.2,1.2v32c0,0.7-0.5,1.2-1.2,1.2h-0.4v-5.6c0-1.5-0.6-2.9-1.5-4
			c0.8-0.1,1.5-0.8,1.5-1.6v-0.7c0-0.9-0.7-1.7-1.7-1.7h-2.3c-0.3-1.5-0.8-3.8-1-5.1c-0.5-2.4-2.7-3.1-4.1-2.9h-17.5
			c-1.7,0-3,0.9-3.6,2.5c-0.2,0.6-0.7,3.2-1.1,5.5h-2.2c-0.9,0-1.7,0.7-1.7,1.7v0.7c0,0.8,0.6,1.5,1.5,1.6c-0.9,1.1-1.5,2.5-1.5,4
			v5.6h-0.4c-0.7,0-1.2-0.5-1.2-1.2V375.2z M-210.4,402.8c0-1.8,1.4-3.2,3.2-3.2h22.4c1.8,0,3.2,1.4,3.2,3.2v8h-28.8V402.8z
			 M-206.7,396.4c0.5-2.6,1-5.4,1.1-5.9c0.2-0.5,0.3-0.5,0.7-0.5h17.6l0.2,0c0.5-0.1,0.6,0.3,0.6,0.4c0.3,1.5,1,4.7,1.2,6H-206.7z"
			/>
		<path fill="#FFFFFF" d="M-204,403.6h-3.1c-0.9,0-1.7,0.7-1.7,1.7v0.7c0,0.9,0.7,1.7,1.7,1.7h3.1c0.9,0,1.7-0.7,1.7-1.7v-0.7
			C-202.4,404.3-203.1,403.6-204,403.6z"/>
		<path fill="#FFFFFF" d="M-184.8,403.6h-3.1c-0.9,0-1.7,0.7-1.7,1.7v0.7c0,0.9,0.7,1.7,1.7,1.7h3.1c0.9,0,1.7-0.7,1.7-1.7v-0.7
			C-183.2,404.3-183.9,403.6-184.8,403.6z"/>
		<rect x="-200.8" y="404.4" fill="#FFFFFF" width="9.6" height="3.2"/>
	</g>
</g>
</svg>
