<?xml version="1.0" encoding="utf-8"?>
<!-- Generator: Adobe Illustrator 18.1.1, SVG Export Plug-In . SVG Version: 6.00 Build 0)  -->
<svg version="1.1" id="Layer_1" xmlns:sketch="http://www.bohemiancoding.com/sketch/ns"
	 xmlns="http://www.w3.org/2000/svg" xmlns:xlink="http://www.w3.org/1999/xlink" x="0px" y="0px" viewBox="-251 343 108 108"
	 enable-background="new -251 343 108 108" xml:space="preserve">
<title>shadow + color + icons</title>
<desc>Created with Sketch.</desc>
<g id="BakeCycle---_x28_r.1.v.1_x29_" sketch:type="MSPage">
	<g id="HOME---_x28_1280x700_x29_" transform="translate(-228.000000, -1016.000000)" sketch:type="MSArtboardGroup">
		<g id="ABOUT" transform="translate(132.000000, 788.000000)" sketch:type="MSLayerGroup">
			<circle id="shadow" sketch:type="MSShapeGroup" fill="none" stroke="#F1F1F1" stroke-width="4" cx="-101" cy="625" r="50">
			</circle>
			
				<linearGradient id="color_1_" gradientUnits="userSpaceOnUse" x1="-402.99" y1="1018.59" x2="-402.99" y2="1017.59" gradientTransform="matrix(100 0 0 -100 40198 102434)">
				<stop  offset="0" style="stop-color:#60C6CF"/>
				<stop  offset="1" style="stop-color:#1DA7B3"/>
			</linearGradient>
			
				<circle id="color" sketch:type="MSShapeGroup" fill="url(#color_1_)" stroke="#FFFFFF" stroke-width="2" cx="-101" cy="625" r="50">
			</circle>
			<g>
				<path fill="#FFFFFF" d="M-125.8,600.7v28.8v3.2v2.4v3.2v2.4v3.2v5.6h51.2v-5.6v-3.2v-2.4v-3.2v-2.4v-3.2v-28.8H-125.8z
					 M-77.8,608.7C-77.8,608.7-77.8,608.7-77.8,608.7c-2.7,0-4.8-2.2-4.8-4.8h4.8V608.7z M-85.8,603.9c0,4.4,3.6,8,8,8c0,0,0,0,0,0
					v9.6c0,0,0,0,0,0c-4.4,0-8,3.6-8,8h-28.8c0-4.4-3.6-8-8-8v-9.6c4.4,0,8-3.6,8-8H-85.8z M-117.8,603.9c0,2.6-2.2,4.8-4.8,4.8
					v-4.8H-117.8z M-122.6,624.7c2.6,0,4.8,2.2,4.8,4.8h-4.8V624.7z M-122.6,632.7h24l2.4,2.4h-26.4V632.7z M-122.6,638.3H-93
					l2.4,2.4h-32V638.3z M-122.6,643.9h35.2l2.4,2.4h-37.6V643.9z M-82.6,629.5c0-2.6,2.2-4.8,4.8-4.8c0,0,0,0,0,0v4.8H-82.6z"/>
				<path fill="#FFFFFF" d="M-100.2,626.3c5.3,0,9.6-4.3,9.6-9.6c0-5.3-4.3-9.6-9.6-9.6c-5.3,0-9.6,4.3-9.6,9.6
					C-109.8,622-105.5,626.3-100.2,626.3z M-101,611.2v-1.7h1.6v1.7c0.7,0.2,1.3,0.6,1.8,1.2l-1.3,1c-0.3-0.4-0.8-0.6-1.3-0.6
					c-0.9,0-1.6,0.7-1.6,1.6c0,0.9,0.7,1.6,1.6,1.6c1.8,0,3.2,1.4,3.2,3.2c0,1.5-1,2.8-2.4,3.1v1.8h-1.6v-1.8
					c-0.6-0.2-1.2-0.5-1.7-1.1l1.2-1c0.3,0.4,0.8,0.6,1.2,0.6c0.9,0,1.6-0.7,1.6-1.6c0-0.9-0.7-1.6-1.6-1.6c-1.8,0-3.2-1.4-3.2-3.2
					C-103.4,612.8-102.4,611.5-101,611.2z"/>
			</g>
		</g>
	</g>
</g>
</svg>
