<?xml version="1.0" encoding="utf-8"?>
<!-- Generator: Adobe Illustrator 18.1.1, SVG Export Plug-In . SVG Version: 6.00 Build 0)  -->
<svg version="1.1" id="Layer_1" xmlns:sketch="http://www.bohemiancoding.com/sketch/ns"
	 xmlns="http://www.w3.org/2000/svg" xmlns:xlink="http://www.w3.org/1999/xlink" x="0px" y="0px" viewBox="-251 343 108 108"
	 enable-background="new -251 343 108 108" xml:space="preserve">
<title>shadow + color + icons</title>
<desc>Created with Sketch.</desc>
<g id="BakeCycle---_x28_r.1.v.1_x29_" sketch:type="MSPage">
	<g id="HOME---_x28_1280x700_x29_" transform="translate(-584.000000, -1016.000000)" sketch:type="MSArtboardGroup">
		<g id="ABOUT" transform="translate(132.000000, 788.000000)" sketch:type="MSLayerGroup">
			<g id="FEATURE-_x2B_-FEATURE-_x2B_-FEATURE" transform="translate(0.000000, 232.000000)">
				<g id="_x32_" transform="translate(356.000000, 0.000000)">
					<g id="shadow-_x2B_-color-_x2B_-icons" transform="translate(100.000000, 0.000000)">
						<circle id="shadow" sketch:type="MSShapeGroup" fill="none" stroke="#F1F1F1" stroke-width="4" cx="-201" cy="393" r="50">
						</circle>
						
							<linearGradient id="color_1_" gradientUnits="userSpaceOnUse" x1="-502.99" y1="786.59" x2="-502.99" y2="785.59" gradientTransform="matrix(100 0 0 -100 50098 79002)">
							<stop  offset="0" style="stop-color:#60C6CF"/>
							<stop  offset="1" style="stop-color:#1DA7B3"/>
						</linearGradient>
						
							<circle id="color" sketch:type="MSShapeGroup" fill="url(#color_1_)" stroke="#FFFFFF" stroke-width="2" cx="-201" cy="393" r="50">
						</circle>
					</g>
				</g>
			</g>
		</g>
	</g>
</g>
<g>
	<g>
		<path fill="#FFFFFF" d="M-197.4,413.4h19.3v-16.1h-19.3V413.4z M-194.1,400.6h12.8v9.6h-12.8V400.6z"/>
		<circle fill="#FFFFFF" cx="-207" cy="408.6" r="1.6"/>
		<path fill="#FFFFFF" d="M-170.9,384.5L-170.9,384.5l-4.5-11.2h-40.7l-4.5,11.2h0l-0.8,2v1.2c0,3,1.2,5.5,3.2,6.8v25.3h45v-25.3
			c2-1.4,3.2-3.8,3.2-6.8v-1.2L-170.9,384.5z M-218.2,387.7v-1.6h8v1.6c0,2.2-1.1,4.8-4,4.8C-217.2,392.5-218.2,390-218.2,387.7z
			 M-185,382.9h-9.2v-6.4h7.6L-185,382.9z M-194.1,386.1h9.6v1.6c0,0,0,0,0,0.1c0,2.6-2.2,4.8-4.8,4.8c-2.7,0-4.8-2.2-4.8-4.8V386.1
			z M-213.9,376.5h5.7l-1.6,6.4h-6.7L-213.9,376.5z M-210.2,416.6v-16h8v16H-210.2z M-176.5,416.6H-199v-19.3h-14.4v19.3h-1.6v-20.9
			c0.3,0,0.5,0,0.8,0c2.5,0,4.5-1.1,5.8-3c1.5,1.8,3.7,3,6.2,3c2.6,0,5-1.3,6.4-3.2c1.5,2,3.8,3.2,6.4,3.2c2.5,0,4.8-1.2,6.2-3
			c1.3,1.9,3.3,3,5.8,3c0.3,0,0.5,0,0.8,0V416.6z"/>
	</g>
</g>
</svg>
